<svg viewBox="0 0 17 17" xmlns="http://www.w3.org/2000/svg" xmlns:svg="http://www.w3.org/2000/svg" xmlns:xlink="http://www.w3.org/1999/xlink" style="background:#747474">
<defs>
  <style>
    .cls-5{stroke:#C84C0C;stroke-width:1px;fill:#C84C0C}
    .cls-6{stroke:#004400;stroke-width:1px;fill:#004400}
    .cls-7{stroke:#FCC4D8;stroke-width:1px;fill:#FCC4D8}
	.cls-4{stroke:red;stroke-width}
    
  </style>
</defs>
<g class="layer">
  <line class="cls-5" x1="7" x2="10" y1="0.5" y2="0.5"/> 
  <line class="cls-6" x1="10" x2="11" y1="0.5" y2="0.5"/> 
  
  <line class="cls-5" x1="6" x2="9" y1="1.5" y2="1.5"/> 
  <line class="cls-6" x1="9" x2="10" y1="1.5" y2="1.5"/>   
  
  <line class="cls-5" x1="5" x2="10" y1="2.5" y2="2.5"/> 
  <line class="cls-6" x1="10" x2="11" y1="2.5" y2="2.5"/>
  
  <line class="cls-5" x1="5" x2="6" y1="3.5" y2="3.5"/> 
  <line class="cls-6" x1="6" x2="8" y1="3.5" y2="3.5"/> 
  <line class="cls-5" x1="8" x2="10" y1="3.5" y2="3.5"/> 
  <line class="cls-6" x1="10" x2="11" y1="3.5" y2="3.5"/> 
  
  <line class="cls-6" x1="4" x2="6" y1="4.5" y2="4.5"/>
  <line class="cls-7" x1="6" x2="7" y1="4.5" y2="4.5"/>
  <line class="cls-6" x1="7" x2="8" y1="4.5" y2="4.5"/>
  <line class="cls-7" x1="8" x2="9" y1="4.5" y2="4.5"/>
  <line class="cls-6" x1="9" x2="10" y1="4.5" y2="4.5"/>
  <line class="cls-5" x1="10" x2="11" y1="4.5" y2="4.5"/>
  
  <line class="cls-6" x1="3" x2="4" y1="5.5" y2="5.5"/>
  <line class="cls-7" x1="4" x2="5" y1="5.5" y2="5.5"/>   
  <line class="cls-6" x1="5" x2="6" y1="5.5" y2="5.5"/>
  <line class="cls-7" x1="6" x2="9" y1="5.5" y2="5.5"/> 
  <line class="cls-6" x1="9" x2="10" y1="5.5" y2="5.5"/>
  <line class="cls-5" x1="10" x2="11" y1="5.5" y2="5.5"/>
  
  <line class="cls-6" x1="2" x2="3" y1="6.5" y2="6.5"/>
  <line class="cls-7" x1="3" x2="5" y1="6.5" y2="6.5"/>
  <line class="cls-5" x1="5" x2="6" y1="6.5" y2="6.5"/>
  <line class="cls-7" x1="6" x2="9" y1="6.5" y2="6.5"/> 
  <line class="cls-6" x1="9" x2="11" y1="6.5" y2="6.5"/>
  <line class="cls-7" x1="11" x2="12" y1="6.5" y2="6.5"/> 
  <line class="cls-6" x1="12" x2="13" y1="6.5" y2="6.5"/>
  
  <line class="cls-7" x1="2" x2="4" y1="7.5" y2="7.5"/>
  <line class="cls-6" x1="4" x2="5" y1="7.5" y2="7.5"/>
  <line class="cls-5" x1="5" x2="7" y1="7.5" y2="7.5"/>
  <line class="cls-7" x1="7" x2="8" y1="7.5" y2="7.5"/>
  <line class="cls-5" x1="8" x2="10" y1="7.5" y2="7.5"/>
  <line class="cls-6" x1="10" x2="11" y1="7.5" y2="7.5"/>
  <line class="cls-7" x1="11" x2="13" y1="7.5" y2="7.5"/>
  
  <line class="cls-7" x1="2" x2="3" y1="8.5" y2="8.5"/>
  <line class="cls-6" x1="3" x2="5" y1="8.5" y2="8.5"/>
  <line class="cls-5" x1="5" x2="10" y1="8.5" y2="8.5"/>
  <line class="cls-6" x1="10" x2="12" y1="8.5" y2="8.5"/>
  <line class="cls-7" x1="12" x2="13" y1="8.5" y2="8.5"/>

  <line class="cls-7" x1="2" x2="4" y1="9.5" y2="9.5"/>
  <line class="cls-6" x1="4" x2="6" y1="9.5" y2="9.5"/>
  <line class="cls-5" x1="6" x2="9" y1="9.5" y2="9.5"/>
  <line class="cls-6" x1="9" x2="11" y1="9.5" y2="9.5"/>
  <line class="cls-7" x1="11" x2="13" y1="9.5" y2="9.5"/>
  
  <line class="cls-6" x1="4" x2="11" y1="10.5" y2="10.5"/>
  <line class="cls-7" x1="11" x2="12" y1="10.5" y2="10.5"/>
  <line class="cls-5" x1="12" x2="13" y1="10.5" y2="10.5"/>
  
  <line class="cls-6" x1="4" x2="8" y1="11.5" y2="11.5"/>
  <line class="cls-5" x1="8" x2="9" y1="11.5" y2="11.5"/>
  <line class="cls-7" x1="9" x2="12" y1="11.5" y2="11.5"/>
  <line class="cls-6" x1="12" x2="13" y1="11.5" y2="11.5"/>

  <line class="cls-6" x1="4" x2="6" y1="12.5" y2="12.5"/>
  <line class="cls-5" x1="6" x2="7" y1="12.5" y2="12.5"/>
  <line class="cls-7" x1="9" x2="12" y1="12.5" y2="12.5"/>
  <line class="cls-5" x1="12" x2="13" y1="12.5" y2="12.5"/>

  <line class="cls-5" x1="4" x2="5" y1="13.5" y2="13.5"/>
  <line class="cls-6" x1="5" x2="6" y1="13.5" y2="13.5"/>
  <line class="cls-6" x1="9" x2="11" y1="13.5" y2="13.5"/>
  
  <line class="cls-5" x1="3" x2="7" y1="14.5" y2="14.5"/>
  <line class="cls-6" x1="9" x2="10" y1="14.5" y2="14.5"/>
  
  <line class="cls-5" x1="4" x2="6" y1="15.5" y2="15.5"/>  
  <line class="cls-6" x1="8" x2="10" y1="15.5" y2="15.5"/></g> 
  </svg>