<svg viewBox="0 0 16 16" xmlns="http://www.w3.org/2000/svg" xmlns:svg="http://www.w3.org/2000/svg" xmlns:xlink="http://www.w3.org/1999/xlink" style="background:rgb(0,0,0)">
<defs>
  <style>
    .cls-1{stroke:#005000;stroke-width:1px;fill:#005000}
    .cls-2{stroke:#00A800;stroke-width:1px;fill:#00A800}
    .cls-3{stroke:#00A800;stroke-width:1px;fill:#00A800}
	.cls-4{stroke:red;stroke-width}
    
  </style>
</defs>
<g class="layer">
  <line class="cls-1" x1="4" x2="11" y1="0.5" y2="0.5"/>
  <line class="cls-1" x1="12" x2="13" y1="3.5" y2="3.5"/>  
  <line class="cls-1" x1="4.5" x2="4.5" y1="0" y2="4"/>
  <line class="cls-1" x1="0" x2="3" y1="1.5" y2="1.5"/>
  <line class="cls-1" x1="13" x2="16" y1="1.5" y2="1.5"/>
  <line class="cls-2" x1="13" x2="16" y1="3.5" y2="3.5"/>
  <line class="cls-1" x1="13" x2="16" y1="4.5" y2="4.5"/>
  <line class="cls-1" x1="0" x2="16" y1="4.5" y2="4.5"/>
  <line class="cls-2" x1="5" x2="11" y1="1.5" y2="1.5"/>
  <line class="cls-2" x1="5" x2="11" y1="2.5" y2="2.5"/>
  <line class="cls-2" x1="0" x2="4" y1="3.5" y2="3.5"/> 
  <line class="cls-2" x1="5" x2="12" y1="3.5" y2="3.5"/> 
  <line class="cls-1" x1="0" x2="16" y1="4.5" y2="4.5"/>
  <line class="cls-1" x1="0.5" x2="0.5" y1="4" y2="8"/>
  <line class="cls-1" x1="8.5" x2="8.5" y1="4" y2="8"/>
  <rect class="cls-2" x="1.5" y="5.5" width="6" height="2"/>   
  <rect class="cls-2" x="9.5" y="5.5" width="6" height="2"/>    
  <rect class="cls-1" x="4.5" y="8.5" width="6" height="6"/>    
  <rect class="cls-2" x="5.5" y="9.5" width="5" height="2"/>   
  <rect class="cls-2" x="4.5" y="13.5" width="3" height="1"/>   
  <rect class="cls-2" x="9.5" y="13.5" width="1" height="1"/> 	 
  <line class="cls-1" x1="12" x2="16" y1="9.5" y2="9.5"/>
  <line class="cls-1" x1="13" x2="16" y1="11.5" y2="11.5"/>
  <line class="cls-1" x1="0" x2="1" y1="11.5" y2="11.5"/>  
  <line class="cls-1" x1="14" x2="16" y1="13.5" y2="13.5"/>
  <line class="cls-2" x1="2.5" x2="2.5" y1="9" y2="15"/>  
  </g>

</svg>